# Blender v2.79 (sub 0) OBJ File: ''
# www.blender.org
o Text.055_CUText.853
v 0.119400 0.015000 -0.207300
v 0.119400 0.015000 -0.093600
v 0.089798 0.015000 -0.151881
vn 0.0000 1.0000 0.0000
s off
f 3//1 2//1 1//1
o Text.054_CUText.852
v 0.119400 -0.015000 -0.067200
v 0.090000 -0.015000 -0.067200
v 0.090000 -0.015000 0.000000
vn 0.0000 -1.0000 0.0000
s off
f 4//2 6//2 5//2
o Text.053_CUText.851
v 0.003300 0.015000 -0.080700
v 0.119400 0.015000 -0.093600
v 0.141300 0.015000 -0.093600
vn 0.0000 1.0000 -0.0000
s off
f 7//3 9//3 8//3
o Text.052_CUText.850
v 0.003300 0.015000 -0.080700
v 0.119400 0.015000 -0.207300
v 0.089798 0.015000 -0.151881
vn -0.0000 1.0000 -0.0000
s off
f 10//4 12//4 11//4
o Text.051_CUText.849
v 0.141300 0.015000 -0.067200
v 0.003300 0.015000 -0.080700
v 0.003300 0.015000 -0.067200
vn 0.0000 1.0000 0.0000
s off
f 15//5 13//5 14//5
o Text.050_CUText.848
v 0.141300 -0.015000 -0.067200
v 0.141300 0.015000 -0.067200
v 0.119400 -0.015000 -0.067200
vn 0.0000 0.0000 1.0000
s 1
f 17//6 18//6 16//6
o Text.049_CUText.847
v 0.141300 -0.015000 -0.093600
v 0.119400 0.015000 -0.093600
v 0.119400 -0.015000 -0.093600
vn 0.0000 0.0000 -1.0000
s 1
f 20//7 19//7 21//7
o Text.048_CUText.846
v 0.141300 -0.015000 -0.093600
v 0.141300 -0.015000 -0.067200
v 0.141300 0.015000 -0.093600
vn 1.0000 0.0000 0.0000
s 1
f 24//8 23//8 22//8
o Text.047_CUText.845
v 0.090000 -0.015000 0.000000
v 0.090000 -0.015000 -0.067200
v 0.090000 0.015000 0.000000
vn -1.0000 0.0000 0.0000
s 1
f 27//9 26//9 25//9
o Text.046_CUText.844
v 0.119400 -0.015000 0.000000
v 0.119400 0.015000 -0.067200
v 0.119400 -0.015000 -0.067200
vn 1.0000 0.0000 0.0000
s 1
f 29//10 28//10 30//10
o Text.045_CUText.843
v 0.119400 -0.015000 0.000000
v 0.090000 -0.015000 0.000000
v 0.119400 0.015000 0.000000
vn 0.0000 0.0000 1.0000
s 1
f 33//11 32//11 31//11
o Text.044_CUText.842
v 0.090000 0.015000 -0.093600
v 0.089873 0.015000 -0.151868
v 0.090000 -0.015000 -0.093600
vn -1.0000 0.0000 0.0022
s 1
f 36//12 34//12 35//12
o Text.043_CUText.841
v 0.119400 -0.015000 -0.093600
v 0.090000 -0.015000 -0.093600
v 0.089798 -0.015000 -0.151881
vn 0.0000 -1.0000 0.0000
s off
f 37//13 38//13 39//13
o Text.042_CUText.840
v 0.003300 -0.015000 -0.080700
v 0.003300 -0.015000 -0.067200
v 0.141300 -0.015000 -0.067200
vn 0.0000 -1.0000 0.0000
s off
f 42//14 41//14 40//14
o Text.041_CUText.839
v 0.003300 -0.015000 -0.080700
v 0.089798 -0.015000 -0.151881
v 0.119400 -0.015000 -0.207300
vn -0.0000 -1.0000 -0.0000
s off
f 44//15 43//15 45//15
o Text.040_CUText.838
v 0.106800 -0.015000 -0.207300
v 0.119400 -0.015000 -0.207300
v 0.106800 0.015000 -0.207300
vn 0.0000 0.0000 -1.0000
s 1
f 48//16 47//16 46//16
o Text.039_CUText.837
v 0.003300 -0.015000 -0.080700
v 0.003300 -0.015000 -0.067200
v 0.003300 0.015000 -0.067200
vn -1.0000 0.0000 0.0000
s 1
f 51//17 49//17 50//17
o Text.038_CUText.836
v 0.003300 -0.015000 -0.080700
v 0.106800 -0.015000 -0.207300
v 0.003300 0.015000 -0.080700
vn -0.7742 0.0000 -0.6329
s 1
f 54//18 53//18 52//18
o Text.037_CUText.835
v 0.042600 0.015000 -0.093600
v 0.090000 -0.015000 -0.093600
v 0.042600 -0.015000 -0.093600
vn 0.0000 0.0000 -1.0000
s 1
f 55//19 56//19 57//19
o Text.036_CUText.834
v 0.042600 -0.015000 -0.093600
v 0.089706 -0.015000 -0.151879
v 0.042600 0.015000 -0.093600
vn 0.7777 0.0000 0.6286
s 1
f 59//20 60//20 58//20
o Text.035_CUText.833
v 0.089873 0.015000 -0.151868
v 0.090000 -0.015000 -0.093600
v 0.089706 -0.015000 -0.151879
vn -1.0000 0.0056 0.0050
s 1
f 62//21 61//21 63//21
o Text.034_CUText.832
v 0.089706 -0.015000 -0.151879
v 0.089873 0.015000 -0.151868
v 0.042600 0.015000 -0.093600
vn 0.7765 -0.0045 0.6300
s 1
f 64//22 65//22 66//22
o Text.033_CUText.831
v 0.090000 -0.015000 -0.093600
v 0.090000 0.015000 -0.093600
v 0.042600 0.015000 -0.093600
vn 0.0000 0.0000 -1.0000
s 1
f 69//23 68//23 67//23
o Text.032_CUText.830
v 0.119400 -0.015000 -0.093600
v 0.119400 0.015000 -0.093600
v 0.119400 0.015000 -0.207300
vn 1.0000 0.0000 0.0000
s 1
f 72//24 71//24 70//24
o Text.031_CUText.829
v 0.106800 0.015000 -0.207300
v 0.119400 -0.015000 -0.207300
v 0.119400 0.015000 -0.207300
vn 0.0000 0.0000 -1.0000
s 1
f 73//25 75//25 74//25
o Text.030_CUText.828
v 0.106800 -0.015000 -0.207300
v 0.003300 0.015000 -0.080700
v 0.106800 0.015000 -0.207300
vn -0.7742 0.0000 -0.6329
s 1
f 77//26 78//26 76//26
o Text.029_CUText.827
v 0.003300 0.015000 -0.067200
v 0.003300 -0.015000 -0.080700
v 0.003300 0.015000 -0.080700
vn -1.0000 0.0000 0.0000
s 1
f 79//27 81//27 80//27
o Text.028_CUText.826
v 0.003300 -0.015000 -0.067200
v 0.003300 0.015000 -0.067200
v 0.090000 0.015000 -0.067200
vn 0.0000 0.0000 1.0000
s 1
f 84//28 83//28 82//28
o Text.027_CUText.825
v 0.090000 0.015000 -0.067200
v 0.003300 -0.015000 -0.067200
v 0.090000 -0.015000 -0.067200
vn 0.0000 0.0000 1.0000
s 1
f 85//29 86//29 87//29
o Text.026_CUText.824
v 0.090000 -0.015000 -0.067200
v 0.090000 0.015000 -0.067200
v 0.090000 0.015000 0.000000
vn -1.0000 0.0000 0.0000
s 1
f 90//30 89//30 88//30
o Text.025_CUText.823
v 0.119400 0.015000 0.000000
v 0.090000 -0.015000 0.000000
v 0.090000 0.015000 0.000000
vn 0.0000 0.0000 1.0000
s 1
f 91//31 93//31 92//31
o Text.024_CUText.822
v 0.119400 -0.015000 0.000000
v 0.119400 0.015000 -0.067200
v 0.119400 0.015000 0.000000
vn 1.0000 0.0000 0.0000
s 1
f 95//32 96//32 94//32
o Text.023_CUText.821
v 0.119400 -0.015000 -0.067200
v 0.119400 0.015000 -0.067200
v 0.141300 0.015000 -0.067200
vn 0.0000 0.0000 1.0000
s 1
f 99//33 98//33 97//33
o Text.022_CUText.820
v 0.141300 0.015000 -0.093600
v 0.141300 -0.015000 -0.067200
v 0.141300 0.015000 -0.067200
vn 1.0000 0.0000 0.0000
s 1
f 100//34 102//34 101//34
o Text.021_CUText.819
v 0.141300 -0.015000 -0.093600
v 0.141300 0.015000 -0.093600
v 0.119400 0.015000 -0.093600
vn 0.0000 0.0000 -1.0000
s 1
f 105//35 104//35 103//35
o Text.020_CUText.818
v 0.042600 -0.015000 -0.093600
v 0.003300 -0.015000 -0.080700
v 0.090000 -0.015000 -0.093600
vn 0.0000 -1.0000 0.0000
s off
f 108//36 107//36 106//36
o Text.019_CUText.817
v 0.089798 -0.015000 -0.151881
v 0.003300 -0.015000 -0.080700
v 0.042600 -0.015000 -0.093600
vn 0.0000 -1.0000 0.0000
s off
f 111//37 110//37 109//37
o Text.018_CUText.816
v 0.119400 -0.015000 -0.093600
v 0.090000 -0.015000 -0.093600
v 0.003300 -0.015000 -0.080700
vn 0.0000 -1.0000 0.0000
s off
f 112//38 114//38 113//38
o Text.017_CUText.815
v 0.119400 -0.015000 -0.207300
v 0.119400 -0.015000 -0.093600
v 0.089798 -0.015000 -0.151881
vn 0.0000 -1.0000 0.0000
s off
f 116//39 117//39 115//39
o Text.016_CUText.814
v 0.106800 -0.015000 -0.207300
v 0.003300 -0.015000 -0.080700
v 0.119400 -0.015000 -0.207300
vn 0.0000 -1.0000 0.0000
s off
f 120//40 119//40 118//40
o Text.015_CUText.813
v 0.003300 -0.015000 -0.080700
v 0.119400 -0.015000 -0.093600
v 0.141300 -0.015000 -0.093600
vn 0.0000 -1.0000 -0.0000
s off
f 123//41 121//41 122//41
o Text.014_CUText.812
v 0.090000 -0.015000 -0.067200
v 0.119400 -0.015000 -0.067200
v 0.141300 -0.015000 -0.067200
vn 0.0000 0.0000 1.0000
s off
f 126//42 125//42 124//42
o Text.013_CUText.811
v 0.119400 -0.015000 -0.067200
v 0.119400 -0.015000 0.000000
v 0.090000 -0.015000 0.000000
vn 0.0000 -1.0000 0.0000
s off
f 128//43 129//43 127//43
o Text.012_CUText.810
v 0.141300 -0.015000 -0.067200
v 0.003300 -0.015000 -0.067200
v 0.090000 -0.015000 -0.067200
vn 0.0000 0.0000 1.0000
s off
f 130//44 132//44 131//44
o Text.011_CUText.809
v 0.141300 -0.015000 -0.093600
v 0.003300 -0.015000 -0.080700
v 0.141300 -0.015000 -0.067200
vn 0.0000 -1.0000 0.0000
s off
f 135//45 134//45 133//45
o Text.010_CUText.808
v 0.042600 0.015000 -0.093600
v 0.003300 0.015000 -0.080700
v 0.089798 0.015000 -0.151881
vn 0.0000 1.0000 -0.0000
s off
f 137//46 136//46 138//46
o Text.009_CUText.807
v 0.090000 0.015000 -0.093600
v 0.003300 0.015000 -0.080700
v 0.119400 0.015000 -0.093600
vn 0.0000 1.0000 0.0000
s off
f 140//47 141//47 139//47
o Text.008_CUText.806
v 0.119400 0.015000 -0.093600
v 0.089798 0.015000 -0.151881
v 0.090000 0.015000 -0.093600
vn 0.0000 1.0000 0.0000
s off
f 144//48 142//48 143//48
o Text.007_CUText.805
v 0.106800 0.015000 -0.207300
v 0.119400 0.015000 -0.207300
v 0.003300 0.015000 -0.080700
vn 0.0000 1.0000 0.0000
s off
f 147//49 146//49 145//49
o Text.006_CUText.804
v 0.003300 0.015000 -0.080700
v 0.090000 0.015000 -0.093600
v 0.042600 0.015000 -0.093600
vn 0.0000 1.0000 0.0000
s off
f 148//50 149//50 150//50
o Text.005_CUText.803
v 0.090000 0.015000 -0.067200
v 0.119400 0.015000 -0.067200
v 0.141300 0.015000 -0.067200
vn 0.0000 0.0000 1.0000
s off
f 152//51 153//51 151//51
o Text.004_CUText.802
v 0.119400 0.015000 0.000000
v 0.119400 0.015000 -0.067200
v 0.090000 0.015000 0.000000
vn 0.0000 1.0000 0.0000
s off
f 156//52 154//52 155//52
o Text.003_CUText.801
v 0.119400 0.015000 -0.067200
v 0.090000 0.015000 0.000000
v 0.090000 0.015000 -0.067200
vn 0.0000 1.0000 0.0000
s off
f 158//53 157//53 159//53
o Text.002_CUText.800
v 0.141300 0.015000 -0.067200
v 0.003300 0.015000 -0.067200
v 0.090000 0.015000 -0.067200
vn 0.0000 0.0000 1.0000
s off
f 162//54 160//54 161//54
o Text.001_CUText.799
v 0.141300 0.015000 -0.093600
v 0.141300 0.015000 -0.067200
v 0.003300 0.015000 -0.080700
vn 0.0000 1.0000 0.0000
s off
f 165//55 164//55 163//55
o Text_CUText.798
v 0.119400 -0.015000 -0.207300
v 0.119400 0.015000 -0.207300
v 0.119400 -0.015000 -0.093600
vn 1.0000 0.0000 0.0000
s 1
f 167//56 168//56 166//56
