# Blender v2.79 (sub 0) OBJ File: 'straight.blend'
# www.blender.org
o Cylinder.129_Cylinder.258
v 0.500000 -0.112744 -0.103753
v 0.500000 -0.000000 0.022400
v 0.500000 -0.000000 -0.105344
vn 1.0000 0.0000 0.0000
s off
f 3//1 2//1 1//1
o Cylinder.128_Cylinder.257
v -0.500000 -0.160936 -0.098609
v 0.500000 -0.112744 -0.103753
v 0.500000 -0.160937 -0.098609
vn 0.0000 -0.1061 -0.9944
s off
f 5//2 6//2 4//2
o Cylinder.127_Cylinder.256
v 0.500000 -0.160937 -0.098609
v 0.500000 -0.205351 -0.090256
v 0.500000 -0.000000 0.022400
vn 1.0000 0.0000 0.0000
s off
f 8//3 7//3 9//3
o Cylinder.126_Cylinder.255
v -0.500000 -0.205351 -0.090256
v -0.500000 -0.244281 -0.079014
v -0.500000 -0.319525 0.022400
vn -1.0000 0.0000 0.0000
s off
f 10//4 11//4 12//4
o Cylinder.125_Cylinder.254
v 0.500000 -0.205351 -0.090256
v 0.500000 -0.244281 -0.079014
v 0.500000 -0.319525 0.022400
vn 1.0000 0.0000 0.0000
s off
f 14//5 13//5 15//5
o Cylinder.124_Cylinder.253
v -0.500000 -0.244281 -0.079014
v -0.500000 -0.276229 -0.065316
v -0.500000 -0.319525 0.022400
vn -1.0000 0.0000 0.0000
s off
f 16//6 17//6 18//6
o Cylinder.123_Cylinder.252
v -0.500000 -0.276229 -0.065316
v 0.500000 -0.244281 -0.079014
v 0.500000 -0.276229 -0.065316
vn -0.0000 -0.3941 -0.9191
s off
f 20//7 21//7 19//7
o Cylinder.122_Cylinder.251
v 0.500000 -0.276229 -0.065316
v 0.500000 -0.244281 -0.079014
v 0.500000 -0.319525 0.022400
vn 1.0000 0.0000 -0.0000
s off
f 22//8 23//8 24//8
o Cylinder.121_Cylinder.250
v -0.500000 -0.299969 -0.049688
v -0.500000 -0.314588 -0.032730
v -0.500000 -0.319525 0.022400
vn -1.0000 0.0000 0.0000
s off
f 26//9 27//9 25//9
o Cylinder.120_Cylinder.249
v 0.500000 -0.299969 -0.049688
v 0.500000 -0.276229 -0.065316
v 0.500000 -0.319525 0.022400
vn 1.0000 0.0000 -0.0000
s off
f 29//10 30//10 28//10
o Cylinder.119_Cylinder.248
v -0.500000 -0.314588 -0.032730
v 0.500000 -0.299969 -0.049688
v 0.500000 -0.314588 -0.032730
vn -0.0000 -0.7574 -0.6530
s off
f 32//11 33//11 31//11
o Cylinder.118_Cylinder.247
v 0.500000 -0.314588 -0.032730
v 0.500000 -0.299969 -0.049688
v 0.500000 -0.319525 0.022400
vn 1.0000 -0.0000 -0.0000
s off
f 36//12 34//12 35//12
o Cylinder.117_Cylinder.246
v -0.500000 -0.319525 0.022400
v 0.500000 -0.314588 -0.032730
v 0.500000 -0.319525 0.022400
vn -0.0000 -0.9960 -0.0892
s off
f 38//13 39//13 37//13
o Cylinder.116_Cylinder.245
v 0.500000 -0.319525 0.022400
v 0.500000 -0.306665 0.064918
v 0.500000 -0.000000 0.022400
vn 1.0000 0.0000 0.0000
s off
f 41//14 40//14 42//14
o Cylinder.115_Cylinder.244
v -0.500000 -0.306665 0.064918
v -0.500000 -0.288504 0.100722
v -0.500000 0.000000 0.022400
vn -1.0000 0.0000 0.0000
s off
f 43//15 44//15 45//15
o Cylinder.114_Cylinder.243
v 0.500000 -0.306665 0.064918
v -0.500000 -0.288504 0.100722
v 0.500000 -0.288504 0.100722
vn -0.0000 -0.8918 0.4524
s off
f 46//16 48//16 47//16
o Cylinder.113_Cylinder.242
v -0.500000 -0.288504 0.100722
v -0.500000 -0.258899 0.134018
v -0.500000 0.000000 0.022400
vn -1.0000 0.0000 0.0000
s off
f 49//17 50//17 51//17
o Cylinder.112_Cylinder.241
v 0.500000 -0.288504 0.100722
v 0.500000 -0.258900 0.134018
v 0.500000 -0.000000 0.022400
vn 1.0000 0.0000 0.0000
s off
f 53//18 52//18 54//18
o Cylinder.111_Cylinder.240
v -0.500000 -0.258899 0.134018
v -0.500000 -0.225088 0.163294
v -0.500000 0.000000 0.022400
vn -1.0000 0.0000 0.0000
s off
f 55//19 56//19 57//19
o Cylinder.110_Cylinder.239
v -0.500000 -0.225088 0.163294
v -0.500000 -0.188551 0.190613
v -0.500000 0.000000 0.022400
vn -1.0000 0.0000 0.0000
s off
f 58//20 59//20 60//20
o Cylinder.109_Cylinder.238
v 0.500000 -0.225088 0.163294
v 0.500000 -0.258900 0.134018
v 0.500000 -0.000000 0.022400
vn 1.0000 -0.0000 0.0000
s off
f 61//21 62//21 63//21
o Cylinder.108_Cylinder.237
v -0.500000 -0.188551 0.190613
v -0.500000 -0.160936 0.213293
v -0.500000 0.000000 0.022400
vn -1.0000 0.0000 0.0000
s off
f 64//22 65//22 66//22
o Cylinder.107_Cylinder.236
v 0.500000 -0.188551 0.190613
v 0.500000 -0.225088 0.163294
v 0.500000 -0.000000 0.022400
vn 1.0000 0.0000 0.0000
s off
f 67//23 68//23 69//23
o Cylinder.106_Cylinder.235
v -0.500000 -0.160936 0.213293
v 0.500000 -0.188551 0.190613
v 0.500000 -0.160936 0.213293
vn -0.0000 -0.6347 0.7728
s off
f 71//24 72//24 70//24
o Cylinder.105_Cylinder.234
v 0.500000 -0.160936 0.213293
v 0.500000 -0.188551 0.190613
v 0.500000 -0.000000 0.022400
vn 1.0000 0.0000 0.0000
s off
f 73//25 74//25 75//25
o Cylinder.104_Cylinder.233
v -0.500000 -0.112744 0.236150
v -0.500000 0.000000 0.250125
v -0.500000 0.000000 0.022400
vn -1.0000 0.0000 0.0000
s off
f 76//26 77//26 78//26
o Cylinder.103_Cylinder.232
v 0.500000 -0.112744 0.236150
v 0.500000 -0.160936 0.213293
v 0.500000 -0.000000 0.022400
vn 1.0000 0.0000 0.0000
s off
f 79//27 80//27 81//27
o Cylinder.102_Cylinder.231
v -0.500000 0.000000 -0.105490
v -0.500000 -0.112744 -0.103753
v -0.500000 0.000000 0.022400
vn -1.0000 0.0000 0.0000
s off
f 84//28 82//28 83//28
o Cylinder.101_Cylinder.230
v 0.500000 -0.000000 -0.105490
v 0.500000 -0.000000 -0.105344
v 0.500000 0.112744 -0.103753
vn 1.0000 0.0000 0.0000
s off
f 86//29 85//29 87//29
o Cylinder.100_Cylinder.229
v -0.500000 0.112744 -0.103753
v -0.500000 0.000000 0.022400
v -0.500000 0.160937 -0.098609
vn -1.0000 0.0000 0.0000
s off
f 90//30 88//30 89//30
o Cylinder.099_Cylinder.228
v 0.500000 0.112744 -0.103753
v 0.500000 -0.000000 0.022400
v 0.500000 0.160936 -0.098609
vn 1.0000 0.0000 0.0000
s off
f 92//31 91//31 93//31
o Cylinder.098_Cylinder.227
v -0.500000 0.160937 -0.098609
v 0.500000 0.112744 -0.103753
v 0.500000 0.160936 -0.098609
vn 0.0000 0.1061 -0.9944
s off
f 94//32 96//32 95//32
o Cylinder.097_Cylinder.226
v 0.500000 0.160936 -0.098609
v 0.500000 -0.000000 0.022400
v 0.500000 0.205351 -0.090256
vn 1.0000 0.0000 0.0000
s off
f 98//33 97//33 99//33
o Cylinder.096_Cylinder.225
v -0.500000 0.205351 -0.090256
v -0.500000 0.244281 -0.079014
v -0.500000 0.319525 0.022400
vn -1.0000 0.0000 0.0000
s off
f 101//34 100//34 102//34
o Cylinder.095_Cylinder.224
v 0.500000 0.205351 -0.090256
v 0.500000 0.244281 -0.079014
v 0.500000 0.319525 0.022400
vn 1.0000 0.0000 0.0000
s off
f 103//35 104//35 105//35
o Cylinder.094_Cylinder.223
v -0.500000 0.244281 -0.079014
v 0.500000 0.205351 -0.090256
v 0.500000 0.244281 -0.079014
vn 0.0000 0.2774 -0.9607
s off
f 106//36 108//36 107//36
o Cylinder.093_Cylinder.222
v 0.500000 0.244281 -0.079014
v 0.500000 0.276229 -0.065316
v 0.500000 0.319525 0.022400
vn 1.0000 0.0000 0.0000
s off
f 109//37 110//37 111//37
o Cylinder.092_Cylinder.221
v -0.500000 0.276229 -0.065316
v 0.500000 0.244281 -0.079014
v 0.500000 0.276229 -0.065316
vn 0.0000 0.3941 -0.9191
s off
f 112//38 114//38 113//38
o Cylinder.091_Cylinder.220
v 0.500000 0.276229 -0.065316
v 0.500000 0.299969 -0.049688
v 0.500000 0.319525 0.022400
vn 1.0000 0.0000 0.0000
s off
f 115//39 116//39 117//39
o Cylinder.090_Cylinder.219
v -0.500000 0.299969 -0.049688
v 0.500000 0.276229 -0.065316
v 0.500000 0.299969 -0.049688
vn 0.0000 0.5499 -0.8353
s off
f 118//40 120//40 119//40
o Cylinder.089_Cylinder.218
v 0.500000 0.299969 -0.049688
v 0.500000 0.314588 -0.032730
v 0.500000 0.319525 0.022400
vn 1.0000 0.0000 0.0000
s off
f 121//41 122//41 123//41
o Cylinder.088_Cylinder.217
v -0.500000 0.314588 -0.032730
v 0.500000 0.299969 -0.049688
v 0.500000 0.314588 -0.032730
vn 0.0000 0.7574 -0.6530
s off
f 124//42 126//42 125//42
o Cylinder.087_Cylinder.216
v -0.500000 0.319525 0.022400
v 0.500000 0.314588 -0.032730
v 0.500000 0.319525 0.022400
vn 0.0000 0.9960 -0.0892
s off
f 127//43 129//43 128//43
o Cylinder.086_Cylinder.215
v -0.500000 0.306665 0.064918
v 0.500000 0.319525 0.022400
v 0.500000 0.306665 0.064918
vn 0.0000 0.9572 0.2895
s off
f 130//44 132//44 131//44
o Cylinder.085_Cylinder.214
v 0.500000 0.306665 0.064918
v 0.500000 -0.000000 0.022400
v 0.500000 0.288504 0.100722
vn 1.0000 0.0000 0.0000
s off
f 133//45 135//45 134//45
o Cylinder.084_Cylinder.213
v -0.500000 0.288504 0.100722
v 0.500000 0.306665 0.064918
v 0.500000 0.288504 0.100722
vn 0.0000 0.8918 0.4524
s off
f 136//46 138//46 137//46
o Cylinder.083_Cylinder.212
v 0.500000 0.288504 0.100722
v 0.500000 -0.000000 0.022400
v 0.500000 0.258899 0.134018
vn 1.0000 0.0000 0.0000
s off
f 139//47 141//47 140//47
o Cylinder.082_Cylinder.211
v -0.500000 0.258900 0.134018
v 0.500000 0.288504 0.100722
v 0.500000 0.258899 0.134018
vn 0.0000 0.7473 0.6645
s off
f 142//48 144//48 143//48
o Cylinder.081_Cylinder.210
v 0.500000 0.258899 0.134018
v 0.500000 -0.000000 0.022400
v 0.500000 0.225088 0.163294
vn 1.0000 0.0000 0.0000
s off
f 145//49 147//49 146//49
o Cylinder.080_Cylinder.209
v -0.500000 0.225088 0.163294
v 0.500000 0.258899 0.134018
v 0.500000 0.225088 0.163294
vn 0.0000 0.6546 0.7560
s off
f 148//50 150//50 149//50
o Cylinder.079_Cylinder.208
v 0.500000 0.225088 0.163294
v 0.500000 -0.000000 0.022400
v 0.500000 0.188551 0.190613
vn 1.0000 0.0000 0.0000
s off
f 151//51 153//51 152//51
o Cylinder.078_Cylinder.207
v -0.500000 0.188551 0.190613
v 0.500000 0.225088 0.163294
v 0.500000 0.188551 0.190613
vn 0.0000 0.5988 0.8009
s off
f 154//52 156//52 155//52
o Cylinder.077_Cylinder.206
v 0.500000 0.188551 0.190613
v 0.500000 -0.000000 0.022400
v 0.500000 0.160936 0.213293
vn 1.0000 0.0000 0.0000
s off
f 157//53 159//53 158//53
o Cylinder.076_Cylinder.205
v -0.500000 0.160936 0.213293
v 0.500000 0.188551 0.190613
v 0.500000 0.160936 0.213293
vn 0.0000 0.6347 0.7728
s off
f 160//54 162//54 161//54
o Cylinder.075_Cylinder.204
v 0.500000 0.160936 0.213293
v 0.500000 0.112744 0.236150
v 0.500000 -0.000000 0.022400
vn 1.0000 0.0000 0.0000
s off
f 163//55 164//55 165//55
o Cylinder.074_Cylinder.203
v -0.500000 0.112744 0.236150
v 0.500000 0.160936 0.213293
v 0.500000 0.112744 0.236150
vn 0.0000 0.4285 0.9035
s off
f 166//56 168//56 167//56
o Cylinder.073_Cylinder.202
v 0.500000 -0.000000 0.250125
v -0.500000 0.000000 0.250125
v 0.500000 0.112744 0.236150
vn 0.0000 0.1230 0.9924
s off
f 170//57 169//57 171//57
o Cylinder.072_Cylinder.201
v -0.500000 0.000000 0.250125
v -0.500000 0.000000 0.022400
v -0.500000 0.112744 0.236150
vn -1.0000 0.0000 0.0000
s off
f 173//58 172//58 174//58
o Cylinder.071_Cylinder.200
v -0.500000 0.000000 -0.105490
v -0.500000 -0.112744 -0.103753
v 0.500000 -0.000000 -0.105490
vn -0.0000 -0.0154 -0.9999
s off
f 177//59 176//59 175//59
o Cylinder.070_Cylinder.199
v -0.500000 0.000000 -0.105490
v -0.500000 0.000000 0.022400
v -0.500000 0.112744 -0.103753
vn -1.0000 0.0000 0.0000
s off
f 180//60 178//60 179//60
o Cylinder.069_Cylinder.198
v -0.500000 0.000000 -0.105490
v 0.500000 -0.000000 -0.105490
v -0.500000 0.112744 -0.103753
vn -0.0000 0.0154 -0.9999
s off
f 183//61 182//61 181//61
o Cylinder.068_Cylinder.197
v -0.500000 -0.112744 -0.103753
v 0.500000 -0.112744 -0.103753
v -0.500000 -0.160936 -0.098609
vn 0.0000 -0.1061 -0.9944
s off
f 185//62 186//62 184//62
o Cylinder.067_Cylinder.196
v -0.500000 -0.112744 -0.103753
v 0.500000 -0.112744 -0.103753
v 0.500000 -0.000000 -0.105490
vn -0.0000 -0.0154 -0.9999
s off
f 189//63 188//63 187//63
o Cylinder.066_Cylinder.195
v 0.500000 -0.112744 -0.103753
v 0.500000 -0.160937 -0.098609
v 0.500000 -0.000000 0.022400
vn 1.0000 0.0000 0.0000
s off
f 191//64 190//64 192//64
o Cylinder.065_Cylinder.194
v 0.500000 -0.112744 -0.103753
v 0.500000 -0.000000 -0.105490
v 0.500000 -0.000000 -0.105344
vn 1.0000 0.0000 0.0000
s off
f 194//65 195//65 193//65
o Cylinder.064_Cylinder.193
v 0.500000 -0.000000 -0.105490
v -0.500000 0.112744 -0.103753
v 0.500000 0.112744 -0.103753
vn 0.0000 0.0154 -0.9999
s off
f 197//66 198//66 196//66
o Cylinder.063_Cylinder.192
v -0.500000 -0.160936 -0.098609
v 0.500000 -0.160937 -0.098609
v -0.500000 -0.205351 -0.090256
vn 0.0000 -0.1848 -0.9828
s off
f 200//67 201//67 199//67
o Cylinder.062_Cylinder.191
v -0.500000 -0.160936 -0.098609
v -0.500000 -0.205351 -0.090256
v -0.500000 0.000000 0.022400
vn -1.0000 0.0000 0.0000
s off
f 203//68 204//68 202//68
o Cylinder.061_Cylinder.190
v 0.500000 -0.160937 -0.098609
v -0.500000 -0.205351 -0.090256
v 0.500000 -0.205351 -0.090256
vn -0.0000 -0.1848 -0.9828
s off
f 205//69 207//69 206//69
o Cylinder.060_Cylinder.189
v -0.500000 -0.205351 -0.090256
v 0.500000 -0.205351 -0.090256
v -0.500000 -0.244281 -0.079014
vn -0.0000 -0.2774 -0.9607
s off
f 209//70 210//70 208//70
o Cylinder.059_Cylinder.188
v -0.500000 -0.205351 -0.090256
v -0.500000 -0.319525 0.022400
v -0.500000 0.000000 0.022400
vn -1.0000 0.0000 0.0000
s off
f 212//71 213//71 211//71
o Cylinder.058_Cylinder.187
v 0.500000 -0.205351 -0.090256
v -0.500000 -0.244281 -0.079014
v 0.500000 -0.244281 -0.079014
vn -0.0000 -0.2774 -0.9607
s off
f 214//72 216//72 215//72
o Cylinder.057_Cylinder.186
v 0.500000 -0.205351 -0.090256
v 0.500000 -0.319525 0.022400
v 0.500000 -0.000000 0.022400
vn 1.0000 0.0000 0.0000
s off
f 219//73 218//73 217//73
o Cylinder.056_Cylinder.185
v -0.500000 -0.244281 -0.079014
v 0.500000 -0.244281 -0.079014
v -0.500000 -0.276229 -0.065316
vn -0.0000 -0.3941 -0.9191
s off
f 221//74 222//74 220//74
o Cylinder.055_Cylinder.184
v -0.500000 -0.276229 -0.065316
v 0.500000 -0.276229 -0.065316
v -0.500000 -0.299969 -0.049688
vn -0.0000 -0.5499 -0.8353
s off
f 224//75 225//75 223//75
o Cylinder.054_Cylinder.183
v -0.500000 -0.276229 -0.065316
v -0.500000 -0.299969 -0.049688
v -0.500000 -0.319525 0.022400
vn -1.0000 0.0000 0.0000
s off
f 226//76 227//76 228//76
o Cylinder.053_Cylinder.182
v 0.500000 -0.276229 -0.065316
v -0.500000 -0.299969 -0.049688
v 0.500000 -0.299969 -0.049688
vn -0.0000 -0.5499 -0.8353
s off
f 229//77 231//77 230//77
o Cylinder.052_Cylinder.181
v -0.500000 -0.299969 -0.049688
v 0.500000 -0.299969 -0.049688
v -0.500000 -0.314588 -0.032730
vn -0.0000 -0.7574 -0.6530
s off
f 233//78 234//78 232//78
o Cylinder.051_Cylinder.180
v -0.500000 -0.314588 -0.032730
v 0.500000 -0.314588 -0.032730
v -0.500000 -0.319525 0.022400
vn -0.0000 -0.9960 -0.0892
s off
f 236//79 237//79 235//79
o Cylinder.050_Cylinder.179
v -0.500000 -0.319525 0.022400
v 0.500000 -0.319525 0.022400
v -0.500000 -0.306665 0.064918
vn -0.0000 -0.9572 0.2895
s off
f 239//80 240//80 238//80
o Cylinder.049_Cylinder.178
v -0.500000 -0.319525 0.022400
v -0.500000 -0.306665 0.064918
v -0.500000 0.000000 0.022400
vn -1.0000 -0.0000 0.0000
s off
f 243//81 241//81 242//81
o Cylinder.048_Cylinder.177
v 0.500000 -0.319525 0.022400
v -0.500000 -0.306665 0.064918
v 0.500000 -0.306665 0.064918
vn -0.0000 -0.9572 0.2895
s off
f 244//82 246//82 245//82
o Cylinder.047_Cylinder.176
v -0.500000 -0.306665 0.064918
v 0.500000 -0.306665 0.064918
v -0.500000 -0.288504 0.100722
vn -0.0000 -0.8918 0.4524
s off
f 248//83 249//83 247//83
o Cylinder.046_Cylinder.175
v 0.500000 -0.306665 0.064918
v 0.500000 -0.288504 0.100722
v 0.500000 -0.000000 0.022400
vn 1.0000 0.0000 0.0000
s off
f 251//84 250//84 252//84
o Cylinder.045_Cylinder.174
v -0.500000 -0.288504 0.100722
v 0.500000 -0.288504 0.100722
v -0.500000 -0.258899 0.134018
vn -0.0000 -0.7473 0.6645
s off
f 254//85 255//85 253//85
o Cylinder.044_Cylinder.173
v 0.500000 -0.288504 0.100722
v -0.500000 -0.258899 0.134018
v 0.500000 -0.258900 0.134018
vn -0.0000 -0.7473 0.6645
s off
f 256//86 258//86 257//86
o Cylinder.043_Cylinder.172
v -0.500000 -0.258899 0.134018
v 0.500000 -0.258900 0.134018
v -0.500000 -0.225088 0.163294
vn -0.0000 -0.6546 0.7560
s off
f 260//87 261//87 259//87
o Cylinder.042_Cylinder.171
v 0.500000 -0.258900 0.134018
v -0.500000 -0.225088 0.163294
v 0.500000 -0.225088 0.163294
vn -0.0000 -0.6546 0.7560
s off
f 262//88 264//88 263//88
o Cylinder.041_Cylinder.170
v -0.500000 -0.225088 0.163294
v 0.500000 -0.225088 0.163294
v -0.500000 -0.188551 0.190613
vn -0.0000 -0.5988 0.8009
s off
f 266//89 267//89 265//89
o Cylinder.040_Cylinder.169
v 0.500000 -0.225088 0.163294
v -0.500000 -0.188551 0.190613
v 0.500000 -0.188551 0.190613
vn -0.0000 -0.5988 0.8009
s off
f 268//90 270//90 269//90
o Cylinder.039_Cylinder.168
v -0.500000 -0.188551 0.190613
v 0.500000 -0.188551 0.190613
v -0.500000 -0.160936 0.213293
vn -0.0000 -0.6347 0.7728
s off
f 272//91 273//91 271//91
o Cylinder.038_Cylinder.167
v -0.500000 -0.160936 0.213293
v 0.500000 -0.160936 0.213293
v -0.500000 -0.112744 0.236150
vn 0.0000 -0.4285 0.9035
s off
f 275//92 276//92 274//92
o Cylinder.037_Cylinder.166
v -0.500000 -0.160936 0.213293
v -0.500000 -0.112744 0.236150
v -0.500000 0.000000 0.022400
vn -1.0000 0.0000 0.0000
s off
f 277//93 278//93 279//93
o Cylinder.036_Cylinder.165
v 0.500000 -0.160936 0.213293
v -0.500000 -0.112744 0.236150
v 0.500000 -0.112744 0.236150
vn -0.0000 -0.4285 0.9035
s off
f 280//94 282//94 281//94
o Cylinder.035_Cylinder.164
v -0.500000 -0.112744 0.236150
v 0.500000 -0.112744 0.236150
v -0.500000 0.000000 0.250125
vn 0.0000 -0.1230 0.9924
s off
f 284//95 285//95 283//95
o Cylinder.034_Cylinder.163
v 0.500000 -0.112744 0.236150
v -0.500000 0.000000 0.250125
v 0.500000 -0.000000 0.250125
vn -0.0000 -0.1230 0.9924
s off
f 286//96 288//96 287//96
o Cylinder.033_Cylinder.162
v 0.500000 -0.112744 0.236150
v 0.500000 -0.000000 0.250125
v 0.500000 -0.000000 0.022400
vn 1.0000 0.0000 0.0000
s off
f 291//97 290//97 289//97
o Cylinder.032_Cylinder.161
v -0.500000 0.000000 0.250125
v -0.500000 0.112744 0.236150
v 0.500000 0.112744 0.236150
vn 0.0000 0.1230 0.9924
s off
f 292//98 294//98 293//98
o Cylinder.031_Cylinder.160
v 0.500000 -0.000000 0.250125
v 0.500000 -0.000000 0.022400
v 0.500000 0.112744 0.236150
vn 1.0000 0.0000 0.0000
s off
f 297//99 295//99 296//99
o Cylinder.030_Cylinder.159
v -0.500000 0.000000 0.022400
v -0.500000 0.319525 0.022400
v -0.500000 0.306665 0.064918
vn -1.0000 0.0000 0.0000
s off
f 300//100 299//100 298//100
o Cylinder.029_Cylinder.158
v -0.500000 0.000000 0.022400
v -0.500000 0.160936 0.213293
v -0.500000 0.112744 0.236150
vn -1.0000 0.0000 0.0000
s off
f 303//101 302//101 301//101
o Cylinder.028_Cylinder.157
v -0.500000 0.000000 0.022400
v -0.500000 0.188551 0.190613
v -0.500000 0.160936 0.213293
vn -1.0000 0.0000 0.0000
s off
f 306//102 305//102 304//102
o Cylinder.027_Cylinder.156
v -0.500000 0.000000 0.022400
v -0.500000 0.225088 0.163294
v -0.500000 0.188551 0.190613
vn -1.0000 0.0000 0.0000
s off
f 309//103 308//103 307//103
o Cylinder.026_Cylinder.155
v -0.500000 0.000000 0.022400
v -0.500000 0.258900 0.134018
v -0.500000 0.225088 0.163294
vn -1.0000 0.0000 0.0000
s off
f 312//104 311//104 310//104
o Cylinder.025_Cylinder.154
v -0.500000 0.000000 0.022400
v -0.500000 0.288504 0.100722
v -0.500000 0.258900 0.134018
vn -1.0000 0.0000 0.0000
s off
f 315//105 314//105 313//105
o Cylinder.024_Cylinder.153
v -0.500000 0.000000 0.022400
v -0.500000 0.205351 -0.090256
v -0.500000 0.319525 0.022400
vn -1.0000 0.0000 0.0000
s off
f 316//106 318//106 317//106
o Cylinder.023_Cylinder.152
v -0.500000 0.000000 0.022400
v -0.500000 0.160937 -0.098609
v -0.500000 0.205351 -0.090256
vn -1.0000 0.0000 0.0000
s off
f 321//107 320//107 319//107
o Cylinder.022_Cylinder.151
v -0.500000 0.000000 0.022400
v -0.500000 0.306665 0.064918
v -0.500000 0.288504 0.100722
vn -1.0000 0.0000 0.0000
s off
f 324//108 323//108 322//108
o Cylinder.021_Cylinder.150
v 0.500000 -0.000000 0.022400
v 0.500000 0.205351 -0.090256
v 0.500000 0.319525 0.022400
vn 1.0000 0.0000 0.0000
s off
f 327//109 325//109 326//109
o Cylinder.020_Cylinder.149
v 0.500000 -0.000000 0.022400
v 0.500000 -0.000000 -0.105344
v 0.500000 0.112744 -0.103753
vn 1.0000 0.0000 0.0000
s off
f 328//110 329//110 330//110
o Cylinder.019_Cylinder.148
v 0.500000 -0.000000 0.022400
v 0.500000 0.319525 0.022400
v 0.500000 0.306665 0.064918
vn 1.0000 0.0000 0.0000
s off
f 331//111 332//111 333//111
o Cylinder.018_Cylinder.147
v -0.500000 0.112744 -0.103753
v 0.500000 0.112744 -0.103753
v -0.500000 0.160937 -0.098609
vn -0.0000 0.1061 -0.9944
s off
f 336//112 335//112 334//112
o Cylinder.017_Cylinder.146
v -0.500000 0.160937 -0.098609
v 0.500000 0.160936 -0.098609
v -0.500000 0.205351 -0.090256
vn 0.0000 0.1848 -0.9828
s off
f 339//113 338//113 337//113
o Cylinder.016_Cylinder.145
v 0.500000 0.160936 -0.098609
v -0.500000 0.205351 -0.090256
v 0.500000 0.205351 -0.090256
vn -0.0000 0.1848 -0.9828
s off
f 341//114 342//114 340//114
o Cylinder.015_Cylinder.144
v -0.500000 0.205351 -0.090256
v 0.500000 0.205351 -0.090256
v -0.500000 0.244281 -0.079014
vn -0.0000 0.2774 -0.9607
s off
f 345//115 344//115 343//115
o Cylinder.014_Cylinder.143
v -0.500000 0.244281 -0.079014
v 0.500000 0.244281 -0.079014
v -0.500000 0.276229 -0.065316
vn 0.0000 0.3941 -0.9191
s off
f 348//116 347//116 346//116
o Cylinder.013_Cylinder.142
v -0.500000 0.244281 -0.079014
v -0.500000 0.276229 -0.065316
v -0.500000 0.319525 0.022400
vn -1.0000 0.0000 0.0000
s off
f 350//117 349//117 351//117
o Cylinder.012_Cylinder.141
v -0.500000 0.276229 -0.065316
v 0.500000 0.276229 -0.065316
v -0.500000 0.299969 -0.049688
vn 0.0000 0.5499 -0.8353
s off
f 354//118 353//118 352//118
o Cylinder.011_Cylinder.140
v -0.500000 0.276229 -0.065316
v -0.500000 0.299969 -0.049688
v -0.500000 0.319525 0.022400
vn -1.0000 0.0000 0.0000
s off
f 355//119 357//119 356//119
o Cylinder.010_Cylinder.139
v -0.500000 0.299969 -0.049688
v 0.500000 0.299969 -0.049688
v -0.500000 0.314588 -0.032730
vn 0.0000 0.7574 -0.6530
s off
f 360//120 359//120 358//120
o Cylinder.009_Cylinder.138
v -0.500000 0.299969 -0.049688
v -0.500000 0.314588 -0.032730
v -0.500000 0.319525 0.022400
vn -1.0000 0.0000 0.0000
s off
f 363//121 362//121 361//121
o Cylinder.008_Cylinder.137
v -0.500000 0.314588 -0.032730
v 0.500000 0.314588 -0.032730
v -0.500000 0.319525 0.022400
vn 0.0000 0.9960 -0.0892
s off
f 366//122 365//122 364//122
o Cylinder.007_Cylinder.136
v -0.500000 0.319525 0.022400
v 0.500000 0.319525 0.022400
v -0.500000 0.306665 0.064918
vn 0.0000 0.9572 0.2895
s off
f 369//123 368//123 367//123
o Cylinder.006_Cylinder.135
v -0.500000 0.306665 0.064918
v 0.500000 0.306665 0.064918
v -0.500000 0.288504 0.100722
vn 0.0000 0.8918 0.4524
s off
f 372//124 371//124 370//124
o Cylinder.005_Cylinder.134
v -0.500000 0.288504 0.100722
v 0.500000 0.288504 0.100722
v -0.500000 0.258900 0.134018
vn 0.0000 0.7473 0.6645
s off
f 375//125 374//125 373//125
o Cylinder.004_Cylinder.133
v -0.500000 0.258900 0.134018
v 0.500000 0.258899 0.134018
v -0.500000 0.225088 0.163294
vn 0.0000 0.6546 0.7560
s off
f 378//126 377//126 376//126
o Cylinder.003_Cylinder.132
v -0.500000 0.225088 0.163294
v 0.500000 0.225088 0.163294
v -0.500000 0.188551 0.190613
vn 0.0000 0.5988 0.8009
s off
f 381//127 380//127 379//127
o Cylinder.002_Cylinder.131
v -0.500000 0.188551 0.190613
v 0.500000 0.188551 0.190613
v -0.500000 0.160936 0.213293
vn 0.0000 0.6347 0.7728
s off
f 384//128 383//128 382//128
o Cylinder.001_Cylinder.130
v -0.500000 0.160936 0.213293
v 0.500000 0.160936 0.213293
v -0.500000 0.112744 0.236150
vn 0.0000 0.4285 0.9035
s off
f 387//129 386//129 385//129
o Cylinder
v -0.500000 -0.112744 -0.103753
v -0.500000 -0.160936 -0.098609
v -0.500000 0.000000 0.022400
vn -1.0000 -0.0000 0.0000
s off
f 388//130 389//130 390//130
