# Blender v2.79 (sub 0) OBJ File: ''
# www.blender.org
o Text.115_CUText.567
v 0.014400 -0.015000 -0.150900
v 0.014400 0.015000 -0.150900
v 0.024598 -0.015000 -0.162704
vn 0.7567 0.0000 0.6538
s off
f 3//1 2//1 1//1
o Text.114_CUText.566
v 0.014400 -0.015000 -0.150900
v 0.024598 -0.015000 -0.162704
v 0.014400 -0.015000 -0.187800
vn -0.0000 -1.0000 0.0000
s off
f 6//2 5//2 4//2
o Text.113_CUText.565
v 0.014400 -0.015000 -0.150900
v 0.014400 0.015000 -0.150900
v 0.014400 0.015000 -0.187800
vn -1.0000 0.0000 -0.0000
s off
f 8//3 9//3 7//3
o Text.112_CUText.564
v 0.034342 0.015000 -0.031482
v 0.008680 -0.014999 -0.000025
v 0.057036 -0.015000 -0.060336
vn -0.7801 0.0115 -0.6255
s off
f 10//4 12//4 11//4
o Text.111_CUText.563
v 0.039237 -0.015000 -0.173644
v 0.038561 -0.015000 -0.202779
v 0.014400 -0.015000 -0.187800
vn 0.0000 -1.0000 -0.0000
s off
f 15//5 14//5 13//5
o Text.110_CUText.562
v 0.039237 -0.015000 -0.173644
v 0.024598 -0.015000 -0.162704
v 0.014400 -0.015000 -0.187800
vn 0.0000 -1.0000 -0.0000
s off
f 18//6 16//6 17//6
o Text.109_CUText.561
v 0.084845 0.015000 -0.170309
v 0.113695 0.015000 -0.184224
v 0.122280 0.015000 -0.165543
vn 0.0000 1.0000 0.0000
s off
f 21//7 20//7 19//7
o Text.108_CUText.560
v 0.125566 0.015000 -0.143280
v 0.093610 0.015000 -0.155864
v 0.084845 0.015000 -0.170309
vn -0.0000 1.0000 0.0000
s off
f 22//8 24//8 23//8
o Text.107_CUText.559
v 0.125566 0.015000 -0.143280
v 0.084845 0.015000 -0.170309
v 0.122280 0.015000 -0.165543
vn 0.0000 1.0000 0.0000
s off
f 25//9 27//9 26//9
o Text.106_CUText.558
v 0.039470 0.015000 -0.173763
v 0.039237 -0.015000 -0.173644
v 0.055196 -0.015000 -0.178859
vn 0.3106 0.0013 0.9506
s off
f 30//10 28//10 29//10
o Text.105_CUText.557
v 0.025041 0.015000 -0.163120
v 0.014400 0.015000 -0.150900
v 0.014400 0.015000 -0.187800
vn -0.0000 1.0000 -0.0000
s off
f 31//11 33//11 32//11
o Text.104_CUText.556
v 0.025041 0.015000 -0.163120
v 0.039237 -0.015000 -0.173644
v 0.024598 -0.015000 -0.162704
vn 0.5986 0.0023 0.8010
s off
f 35//12 34//12 36//12
o Text.103_CUText.555
v 0.025041 0.015000 -0.163120
v 0.039470 0.015000 -0.173763
v 0.014400 0.015000 -0.187800
vn 0.0000 1.0000 -0.0000
s off
f 38//13 39//13 37//13
o Text.102_CUText.554
v 0.096049 0.015000 -0.141797
v 0.125566 0.015000 -0.143280
v 0.122975 0.015000 -0.123006
vn -0.0000 1.0000 0.0000
s off
f 41//14 40//14 42//14
o Text.101_CUText.553
v 0.052455 -0.015000 -0.206971
v 0.039237 -0.015000 -0.173644
v 0.055196 -0.015000 -0.178859
vn -0.0000 -1.0000 -0.0000
s off
f 44//15 43//15 45//15
o Text.100_CUText.552
v 0.052455 -0.015000 -0.206971
v 0.039237 -0.015000 -0.173644
v 0.038561 -0.015000 -0.202779
vn 0.0000 -1.0000 0.0000
s off
f 47//16 48//16 46//16
o Text.099_CUText.551
v 0.074701 0.015000 -0.085596
v 0.086743 -0.015000 -0.105615
v 0.074414 -0.015000 -0.085155
vn -0.8565 0.0006 -0.5161
s off
f 49//17 50//17 51//17
o Text.098_CUText.550
v 0.113695 -0.015000 -0.184224
v 0.122280 -0.015000 -0.165543
v 0.113695 0.015000 -0.184224
vn 0.9086 0.0000 -0.4176
s off
f 52//18 54//18 53//18
o Text.097_CUText.549
v 0.084845 -0.015000 -0.170309
v 0.084845 0.015000 -0.170309
v 0.093610 -0.015000 -0.155864
vn -0.8549 -0.0000 0.5188
s off
f 57//19 56//19 55//19
o Text.096_CUText.548
v 0.084845 -0.015000 -0.170309
v 0.098899 -0.015000 -0.197389
v 0.084487 -0.015000 -0.204063
vn 0.0000 -1.0000 0.0000
s off
f 58//20 60//20 59//20
o Text.095_CUText.547
v 0.084845 -0.015000 -0.170309
v 0.113695 -0.015000 -0.184224
v 0.098899 -0.015000 -0.197389
vn 0.0000 -1.0000 -0.0000
s off
f 61//21 63//21 62//21
o Text.094_CUText.546
v 0.124577 -0.015000 -0.152597
v 0.125327 -0.015000 -0.139406
v 0.125566 0.015000 -0.143280
vn 0.9983 -0.0153 -0.0568
s off
f 66//22 65//22 64//22
o Text.093_CUText.545
v 0.124577 -0.015000 -0.152597
v 0.084845 -0.015000 -0.170309
v 0.093610 -0.015000 -0.155864
vn 0.0000 -1.0000 0.0000
s off
f 68//23 67//23 69//23
o Text.092_CUText.544
v 0.124577 -0.015000 -0.152597
v 0.122280 -0.015000 -0.165543
v 0.122280 0.015000 -0.165543
vn 0.9846 0.0000 -0.1747
s off
f 72//24 70//24 71//24
o Text.091_CUText.543
v 0.097591 0.015000 -0.073281
v 0.074701 0.015000 -0.085596
v 0.086770 0.015000 -0.105702
vn -0.0000 1.0000 0.0000
s off
f 73//25 75//25 74//25
o Text.090_CUText.542
v 0.057431 0.015000 -0.060857
v 0.097591 0.015000 -0.073281
v 0.061800 0.015000 -0.027910
vn 0.0000 1.0000 0.0000
s off
f 78//26 77//26 76//26
o Text.089_CUText.541
v 0.057431 0.015000 -0.060857
v 0.057036 -0.015000 -0.060336
v 0.074414 -0.015000 -0.085155
vn -0.8192 0.0008 -0.5736
s off
f 79//27 81//27 80//27
o Text.088_CUText.540
v 0.057431 0.015000 -0.060857
v 0.061800 0.015000 -0.027910
v 0.034342 0.015000 -0.031482
vn -0.0000 1.0000 0.0000
s off
f 83//28 82//28 84//28
o Text.087_CUText.539
v 0.057431 0.015000 -0.060857
v 0.097591 0.015000 -0.073281
v 0.074701 0.015000 -0.085596
vn -0.0000 1.0000 -0.0000
s off
f 86//29 87//29 85//29
o Text.086_CUText.538
v 0.096049 -0.015000 -0.141797
v 0.096049 0.015000 -0.141797
v 0.093610 -0.015000 -0.155864
vn -0.9853 -0.0000 0.1709
s off
f 89//30 90//30 88//30
o Text.085_CUText.537
v 0.091707 -0.015000 -0.065190
v 0.097591 0.015000 -0.073281
v 0.111335 -0.015000 -0.094343
vn 0.8294 -0.0121 0.5585
s off
f 92//31 91//31 93//31
o Text.084_CUText.536
v 0.091707 -0.015000 -0.065190
v 0.057036 -0.015000 -0.060336
v 0.074414 -0.015000 -0.085155
vn -0.0000 -1.0000 0.0000
s off
f 96//32 94//32 95//32
o Text.083_CUText.535
v 0.061500 -0.015000 -0.027900
v 0.091707 -0.015000 -0.065190
v 0.057036 -0.015000 -0.060336
vn -0.0000 -1.0000 -0.0000
s off
f 97//33 99//33 98//33
o Text.082_CUText.534
v 0.061500 -0.015000 -0.027900
v 0.008680 -0.014999 -0.000025
v 0.139800 -0.015000 0.000000
vn -0.0000 -1.0000 0.0000
s off
f 102//34 101//34 100//34
o Text.081_CUText.533
v 0.061500 -0.015000 -0.027900
v 0.008680 -0.014999 -0.000025
v 0.057036 -0.015000 -0.060336
vn -0.0000 -1.0000 0.0000
s off
f 105//35 103//35 104//35
o Text.080_CUText.532
v 0.061500 -0.015000 -0.027900
v 0.061800 0.015000 -0.027910
v 0.139800 0.015000 -0.027900
vn 0.0001 -0.0004 -1.0000
s off
f 108//36 106//36 107//36
o Text.079_CUText.531
v 0.061500 -0.015000 -0.027900
v 0.091707 -0.015000 -0.065190
v 0.061800 0.015000 -0.027910
vn 0.7770 -0.0075 0.6294
s off
f 111//37 109//37 110//37
o Text.078_CUText.530
v 0.098899 0.015000 -0.197389
v 0.113695 -0.015000 -0.184224
v 0.113695 0.015000 -0.184224
vn 0.6647 -0.0000 -0.7471
s off
f 112//38 114//38 113//38
o Text.077_CUText.529
v 0.098899 0.015000 -0.197389
v 0.113695 -0.015000 -0.184224
v 0.098899 -0.015000 -0.197389
vn 0.6647 -0.0000 -0.7471
s off
f 115//39 116//39 117//39
o Text.076_CUText.528
v 0.098899 0.015000 -0.197389
v 0.084845 0.015000 -0.170309
v 0.113695 0.015000 -0.184224
vn 0.0000 1.0000 0.0000
s off
f 118//40 119//40 120//40
o Text.075_CUText.527
v 0.084043 0.015000 -0.204209
v 0.098899 0.015000 -0.197389
v 0.084845 0.015000 -0.170309
vn 0.0000 1.0000 0.0000
s off
f 122//41 121//41 123//41
o Text.074_CUText.526
v 0.084043 0.015000 -0.204209
v 0.098899 0.015000 -0.197389
v 0.084487 -0.015000 -0.204063
vn 0.4172 0.0018 -0.9088
s off
f 125//42 126//42 124//42
o Text.073_CUText.525
v 0.122119 -0.015000 -0.118986
v 0.122975 0.015000 -0.123006
v 0.115014 0.015000 -0.101716
vn 0.9365 0.0202 0.3502
s off
f 128//43 129//43 127//43
o Text.072_CUText.524
v 0.122119 -0.015000 -0.118986
v 0.115014 0.015000 -0.101716
v 0.111335 -0.015000 -0.094343
vn 0.9160 -0.0138 0.4008
s off
f 131//44 132//44 130//44
o Text.071_CUText.523
v 0.122119 -0.015000 -0.118986
v 0.096049 -0.015000 -0.141797
v 0.124577 -0.015000 -0.152597
vn -0.0000 -1.0000 -0.0000
s off
f 134//45 135//45 133//45
o Text.070_CUText.522
v 0.122119 -0.015000 -0.118986
v 0.124577 -0.015000 -0.152597
v 0.125327 -0.015000 -0.139406
vn 0.0000 -1.0000 0.0000
s off
f 136//46 137//46 138//46
o Text.069_CUText.521
v 0.067903 -0.015000 -0.207467
v 0.084845 -0.015000 -0.170309
v 0.070363 -0.015000 -0.177852
vn 0.0000 -1.0000 0.0000
s off
f 139//47 140//47 141//47
o Text.068_CUText.520
v 0.067903 -0.015000 -0.207467
v 0.084845 -0.015000 -0.170309
v 0.084487 -0.015000 -0.204063
vn -0.0000 -1.0000 0.0000
s off
f 142//48 144//48 143//48
o Text.067_CUText.519
v 0.067903 -0.015000 -0.207467
v 0.055196 -0.015000 -0.178859
v 0.070363 -0.015000 -0.177852
vn 0.0000 -1.0000 0.0000
s off
f 146//49 145//49 147//49
o Text.066_CUText.518
v 0.067903 -0.015000 -0.207467
v 0.067903 0.015000 -0.207467
v 0.084043 0.015000 -0.204209
vn 0.1979 0.0000 -0.9802
s off
f 150//50 148//50 149//50
o Text.065_CUText.517
v 0.094490 0.015000 -0.124148
v 0.097591 0.015000 -0.073281
v 0.115014 0.015000 -0.101716
vn 0.0000 1.0000 0.0000
s off
f 153//51 151//51 152//51
o Text.064_CUText.516
v 0.094490 0.015000 -0.124148
v 0.086770 0.015000 -0.105702
v 0.086743 -0.015000 -0.105615
vn -0.9225 -0.0003 -0.3861
s off
f 154//52 156//52 155//52
o Text.063_CUText.515
v 0.094490 0.015000 -0.124148
v 0.096049 0.015000 -0.141797
v 0.122975 0.015000 -0.123006
vn 0.0000 1.0000 -0.0000
s off
f 159//53 158//53 157//53
o Text.062_CUText.514
v 0.094490 0.015000 -0.124148
v 0.122975 0.015000 -0.123006
v 0.115014 0.015000 -0.101716
vn 0.0000 1.0000 0.0000
s off
f 161//54 160//54 162//54
o Text.061_CUText.513
v 0.094490 0.015000 -0.124148
v 0.097591 0.015000 -0.073281
v 0.086770 0.015000 -0.105702
vn -0.0000 1.0000 0.0000
s off
f 164//55 163//55 165//55
o Text.060_CUText.512
v 0.094475 -0.015000 -0.124240
v 0.094490 0.015000 -0.124148
v 0.086743 -0.015000 -0.105615
vn -0.9236 0.0016 -0.3834
s off
f 167//56 166//56 168//56
o Text.059_CUText.511
v 0.094475 -0.015000 -0.124240
v 0.086743 -0.015000 -0.105615
v 0.111335 -0.015000 -0.094343
vn 0.0000 -1.0000 0.0000
s off
f 170//57 169//57 171//57
o Text.058_CUText.510
v 0.094475 -0.015000 -0.124240
v 0.122119 -0.015000 -0.118986
v 0.096049 -0.015000 -0.141797
vn 0.0000 -1.0000 -0.0000
s off
f 172//58 174//58 173//58
o Text.057_CUText.509
v 0.094475 -0.015000 -0.124240
v 0.094490 0.015000 -0.124148
v 0.096049 -0.015000 -0.141797
vn -0.9960 0.0008 -0.0893
s off
f 176//59 177//59 175//59
o Text.056_CUText.508
v 0.139800 0.015000 0.000000
v 0.061800 0.015000 -0.027910
v 0.034342 0.015000 -0.031482
vn -0.0000 1.0000 0.0000
s off
f 179//60 180//60 178//60
o Text.055_CUText.507
v 0.139800 0.015000 0.000000
v 0.139800 0.015000 -0.027900
v 0.139800 -0.015000 -0.027900
vn 1.0000 0.0000 0.0000
s off
f 182//61 181//61 183//61
o Text.054_CUText.506
v 0.008479 0.015000 0.000000
v 0.008680 -0.014999 -0.000025
v 0.139800 -0.015000 0.000000
vn -0.0002 -0.0009 1.0000
s off
f 186//62 184//62 185//62
o Text.053_CUText.505
v 0.008479 0.015000 0.000000
v 0.139800 0.015000 0.000000
v 0.139800 -0.015000 0.000000
vn -0.0000 -0.0000 1.0000
s off
f 189//63 188//63 187//63
o Text.052_CUText.504
v 0.024694 0.015000 -0.195723
v 0.014400 0.015000 -0.187800
v 0.014400 -0.015000 -0.187800
vn -0.6099 0.0000 -0.7925
s off
f 190//64 192//64 191//64
o Text.051_CUText.503
v 0.024694 -0.015000 -0.195723
v 0.038561 -0.015000 -0.202779
v 0.014400 -0.015000 -0.187800
vn 0.0000 -1.0000 0.0000
s off
f 195//65 193//65 194//65
o Text.050_CUText.502
v 0.070363 0.015000 -0.177852
v 0.084845 -0.015000 -0.170309
v 0.070363 -0.015000 -0.177852
vn -0.4620 0.0000 0.8869
s off
f 197//66 196//66 198//66
o Text.049_CUText.501
v 0.070363 0.015000 -0.177852
v 0.067903 0.015000 -0.207467
v 0.084845 0.015000 -0.170309
vn 0.0000 1.0000 -0.0000
s off
f 201//67 200//67 199//67
o Text.048_CUText.500
v 0.055196 0.015000 -0.178859
v 0.055196 -0.015000 -0.178859
v 0.070363 -0.015000 -0.177852
vn -0.0662 0.0000 0.9978
s off
f 204//68 202//68 203//68
o Text.047_CUText.499
v 0.055196 0.015000 -0.178859
v 0.070363 0.015000 -0.177852
v 0.067903 0.015000 -0.207467
vn 0.0000 1.0000 0.0000
s off
f 207//69 205//69 206//69
o Text.046_CUText.498
v 0.052455 0.015000 -0.206971
v 0.055196 0.015000 -0.178859
v 0.067903 0.015000 -0.207467
vn 0.0000 1.0000 -0.0000
s off
f 210//70 208//70 209//70
o Text.045_CUText.497
v 0.052455 0.015000 -0.206971
v 0.067903 0.015000 -0.207467
v 0.052455 -0.015000 -0.206971
vn -0.0321 0.0000 -0.9995
s off
f 212//71 213//71 211//71
o Text.044_CUText.496
v 0.052455 0.015000 -0.206971
v 0.055196 0.015000 -0.178859
v 0.039470 0.015000 -0.173763
vn -0.0000 1.0000 0.0000
s off
f 214//72 216//72 215//72
o Text.043_CUText.495
v 0.038561 0.015000 -0.202779
v 0.024694 0.015000 -0.195723
v 0.014400 0.015000 -0.187800
vn 0.0000 1.0000 -0.0000
s off
f 217//73 218//73 219//73
o Text.042_CUText.494
v 0.038561 0.015000 -0.202779
v 0.052455 0.015000 -0.206971
v 0.039470 0.015000 -0.173763
vn 0.0000 1.0000 0.0000
s off
f 221//74 220//74 222//74
o Text.041_CUText.493
v 0.038561 0.015000 -0.202779
v 0.039470 0.015000 -0.173763
v 0.014400 0.015000 -0.187800
vn 0.0000 1.0000 0.0000
s off
f 223//75 225//75 224//75
o Text.040_CUText.492
v 0.038561 0.015000 -0.202779
v 0.024694 -0.015000 -0.195723
v 0.024694 0.015000 -0.195723
vn -0.4535 -0.0000 -0.8913
s off
f 226//76 227//76 228//76
o Text.039_CUText.491
v 0.038561 0.015000 -0.202779
v 0.052455 0.015000 -0.206971
v 0.038561 -0.015000 -0.202779
vn -0.2889 -0.0000 -0.9574
s off
f 230//77 231//77 229//77
o Text.038_CUText.490
v 0.125566 0.015000 -0.143280
v 0.096049 0.015000 -0.141797
v 0.093610 0.015000 -0.155864
vn -0.0000 1.0000 -0.0000
s off
f 232//78 234//78 233//78
o Text.037_CUText.489
v 0.096049 0.015000 -0.141797
v 0.093610 0.015000 -0.155864
v 0.093610 -0.015000 -0.155864
vn -0.9853 0.0000 0.1709
s off
f 235//79 236//79 237//79
o Text.036_CUText.488
v 0.094490 0.015000 -0.124148
v 0.096049 -0.015000 -0.141797
v 0.096049 0.015000 -0.141797
vn -0.9961 -0.0000 -0.0880
s off
f 238//80 240//80 239//80
o Text.035_CUText.487
v 0.113695 -0.015000 -0.184224
v 0.084845 -0.015000 -0.170309
v 0.122280 -0.015000 -0.165543
vn 0.0000 -1.0000 -0.0000
s off
f 242//81 241//81 243//81
o Text.034_CUText.486
v 0.122280 -0.015000 -0.165543
v 0.113695 0.015000 -0.184224
v 0.122280 0.015000 -0.165543
vn 0.9086 0.0000 -0.4176
s off
f 246//82 244//82 245//82
o Text.033_CUText.485
v 0.084487 -0.015000 -0.204063
v 0.098899 -0.015000 -0.197389
v 0.098899 0.015000 -0.197389
vn 0.4202 -0.0000 -0.9074
s off
f 249//83 248//83 247//83
o Text.032_CUText.484
v 0.093610 -0.015000 -0.155864
v 0.093610 0.015000 -0.155864
v 0.084845 0.015000 -0.170309
vn -0.8549 0.0000 0.5188
s off
f 250//84 251//84 252//84
o Text.031_CUText.483
v 0.084845 -0.015000 -0.170309
v 0.124577 -0.015000 -0.152597
v 0.122280 -0.015000 -0.165543
vn 0.0000 -1.0000 0.0000
s off
f 253//85 255//85 254//85
o Text.030_CUText.482
v 0.125327 -0.015000 -0.139406
v 0.122119 -0.015000 -0.118986
v 0.125566 0.015000 -0.143280
vn 0.9878 0.0122 0.1552
s off
f 258//86 257//86 256//86
o Text.029_CUText.481
v 0.124577 -0.015000 -0.152597
v 0.125566 0.015000 -0.143280
v 0.122280 0.015000 -0.165543
vn 0.9892 0.0127 -0.1460
s off
f 261//87 260//87 259//87
o Text.028_CUText.480
v 0.122119 -0.015000 -0.118986
v 0.122975 0.015000 -0.123006
v 0.125566 0.015000 -0.143280
vn 0.9919 -0.0113 0.1268
s off
f 264//88 263//88 262//88
o Text.027_CUText.479
v 0.096049 -0.015000 -0.141797
v 0.124577 -0.015000 -0.152597
v 0.093610 -0.015000 -0.155864
vn 0.0000 -1.0000 0.0000
s off
f 265//89 267//89 266//89
o Text.026_CUText.478
v 0.094475 -0.015000 -0.124240
v 0.122119 -0.015000 -0.118986
v 0.111335 -0.015000 -0.094343
vn 0.0000 -1.0000 0.0000
s off
f 270//90 268//90 269//90
o Text.025_CUText.477
v 0.111335 -0.015000 -0.094343
v 0.097591 0.015000 -0.073281
v 0.115014 0.015000 -0.101716
vn 0.8524 0.0238 0.5223
s off
f 273//91 272//91 271//91
o Text.024_CUText.476
v 0.139800 0.015000 -0.027900
v 0.061500 -0.015000 -0.027900
v 0.139800 -0.015000 -0.027900
vn 0.0000 0.0000 -1.0000
s off
f 274//92 276//92 275//92
o Text.023_CUText.475
v 0.061500 -0.015000 -0.027900
v 0.139800 -0.015000 0.000000
v 0.139800 -0.015000 -0.027900
vn 0.0000 -1.0000 0.0000
s off
f 277//93 279//93 278//93
o Text.022_CUText.474
v 0.067903 0.015000 -0.207467
v 0.084043 0.015000 -0.204209
v 0.084845 0.015000 -0.170309
vn -0.0000 1.0000 0.0000
s off
f 282//94 281//94 280//94
o Text.021_CUText.473
v 0.070363 0.015000 -0.177852
v 0.084845 -0.015000 -0.170309
v 0.084845 0.015000 -0.170309
vn -0.4620 -0.0000 0.8869
s off
f 284//95 285//95 283//95
o Text.020_CUText.472
v 0.055196 0.015000 -0.178859
v 0.039470 0.015000 -0.173763
v 0.055196 -0.015000 -0.178859
vn 0.3083 -0.0000 0.9513
s off
f 288//96 286//96 287//96
o Text.019_CUText.471
v 0.038561 0.015000 -0.202779
v 0.024694 -0.015000 -0.195723
v 0.038561 -0.015000 -0.202779
vn -0.4535 0.0000 -0.8913
s off
f 289//97 291//97 290//97
o Text.018_CUText.470
v 0.067903 -0.015000 -0.207467
v 0.084043 0.015000 -0.204209
v 0.084487 -0.015000 -0.204063
vn 0.2010 -0.0018 -0.9796
s off
f 293//98 294//98 292//98
o Text.017_CUText.469
v 0.052455 -0.015000 -0.206971
v 0.067903 -0.015000 -0.207467
v 0.067903 0.015000 -0.207467
vn -0.0321 -0.0000 -0.9995
s off
f 297//99 296//99 295//99
o Text.016_CUText.468
v 0.070363 -0.015000 -0.177852
v 0.055196 0.015000 -0.178859
v 0.070363 0.015000 -0.177852
vn -0.0662 0.0000 0.9978
s off
f 298//100 300//100 299//100
o Text.015_CUText.467
v 0.055196 -0.015000 -0.178859
v 0.067903 -0.015000 -0.207467
v 0.052455 -0.015000 -0.206971
vn 0.0000 -1.0000 -0.0000
s off
f 301//101 303//101 302//101
o Text.014_CUText.466
v 0.038561 -0.015000 -0.202779
v 0.052455 0.015000 -0.206971
v 0.052455 -0.015000 -0.206971
vn -0.2889 0.0000 -0.9574
s off
f 305//102 306//102 304//102
o Text.013_CUText.465
v 0.024694 -0.015000 -0.195723
v 0.024694 0.015000 -0.195723
v 0.014400 -0.015000 -0.187800
vn -0.6099 -0.0000 -0.7925
s off
f 308//103 307//103 309//103
o Text.012_CUText.464
v 0.039237 -0.015000 -0.173644
v 0.039470 0.015000 -0.173763
v 0.025041 0.015000 -0.163120
vn 0.5936 -0.0014 0.8048
s off
f 310//104 311//104 312//104
o Text.011_CUText.463
v 0.024598 -0.015000 -0.162704
v 0.014400 0.015000 -0.150900
v 0.025041 0.015000 -0.163120
vn 0.7542 -0.0020 0.6567
s off
f 313//105 315//105 314//105
o Text.010_CUText.462
v 0.014400 -0.015000 -0.150900
v 0.014400 -0.015000 -0.187800
v 0.014400 0.015000 -0.187800
vn -1.0000 -0.0000 -0.0000
s off
f 316//106 318//106 317//106
o Text.009_CUText.461
v 0.074701 0.015000 -0.085596
v 0.086743 -0.015000 -0.105615
v 0.086770 0.015000 -0.105702
vn -0.8574 -0.0007 -0.5147
s off
f 319//107 321//107 320//107
o Text.008_CUText.460
v 0.139800 0.015000 0.000000
v 0.061800 0.015000 -0.027910
v 0.139800 0.015000 -0.027900
vn 0.0000 1.0000 0.0000
s off
f 324//108 323//108 322//108
o Text.007_CUText.459
v 0.008479 0.015000 0.000000
v 0.139800 0.015000 0.000000
v 0.034342 0.015000 -0.031482
vn 0.0000 1.0000 -0.0000
s off
f 326//109 327//109 325//109
o Text.006_CUText.458
v 0.074414 -0.015000 -0.085155
v 0.057431 0.015000 -0.060857
v 0.074701 0.015000 -0.085596
vn -0.8200 -0.0006 -0.5724
s off
f 329//110 330//110 328//110
o Text.005_CUText.457
v 0.057036 -0.015000 -0.060336
v 0.034342 0.015000 -0.031482
v 0.057431 0.015000 -0.060857
vn -0.7862 -0.0004 -0.6180
s off
f 332//111 333//111 331//111
o Text.004_CUText.456
v 0.091707 -0.015000 -0.065190
v 0.074414 -0.015000 -0.085155
v 0.111335 -0.015000 -0.094343
vn -0.0000 -1.0000 -0.0000
s off
f 335//112 336//112 334//112
o Text.003_CUText.455
v 0.061800 0.015000 -0.027910
v 0.091707 -0.015000 -0.065190
v 0.097591 0.015000 -0.073281
vn 0.7850 0.0130 0.6193
s off
f 339//113 337//113 338//113
o Text.002_CUText.454
v 0.139800 -0.015000 0.000000
v 0.139800 -0.015000 -0.027900
v 0.139800 0.015000 0.000000
vn 1.0000 -0.0000 0.0000
s off
f 341//114 342//114 340//114
o Text.001_CUText.453
v 0.008680 -0.014999 -0.000025
v 0.008479 0.015000 0.000000
v 0.034342 0.015000 -0.031482
vn -0.7727 -0.0046 -0.6348
s off
f 344//115 345//115 343//115
o Text_CUText.452
v 0.086743 -0.015000 -0.105615
v 0.074414 -0.015000 -0.085155
v 0.111335 -0.015000 -0.094343
vn -0.0000 -1.0000 0.0000
s off
f 347//116 346//116 348//116
