# Blender v2.79 (sub 0) OBJ File: 'untitledWithNormals.blend'
# www.blender.org
o Cube.043
v -0.500000 1.000000 0.500000
v -1.000000 0.500000 0.500000
v -0.500000 0.500000 1.000000
vn -0.5774 0.5774 0.5774
s off
f 2//1 3//1 1//1
o Cube.042
v 0.500000 1.000000 0.500000
v -0.500000 1.000000 0.500000
v -0.500000 1.000000 -0.500000
vn 0.0000 1.0000 0.0000
s off
f 6//2 5//2 4//2
o Cube.041
v 0.500000 1.000000 0.500000
v 0.499999 0.500000 1.000000
v 1.000000 0.500000 0.500000
vn 0.5773 0.5774 0.5774
s off
f 8//3 9//3 7//3
o Cube.040
v 0.500000 1.000000 -0.500000
v 0.500000 1.000000 0.500000
v 1.000000 0.500000 0.500000
vn 0.7071 0.7071 0.0000
s off
f 10//4 11//4 12//4
o Cube.039
v 0.500000 1.000000 -0.500000
v 0.500000 1.000000 0.500000
v -0.500000 1.000000 -0.500000
vn 0.0000 1.0000 0.0000
s off
f 15//5 14//5 13//5
o Cube.038
v 1.000000 0.500000 -0.500000
v 1.000000 0.500000 0.500000
v 0.500000 1.000000 -0.500000
vn 0.7071 0.7071 0.0000
s off
f 18//6 17//6 16//6
o Cube.037
v 1.000000 0.500000 -0.500000
v 0.500000 0.500000 -1.000000
v 1.000000 -0.500000 -0.500000
vn 0.7071 0.0000 -0.7071
s off
f 20//7 19//7 21//7
o Cube.036
v 1.000000 0.500000 -0.500000
v 0.500000 0.500000 -1.000000
v 0.500000 1.000000 -0.500000
vn 0.5774 0.5774 -0.5774
s off
f 23//8 24//8 22//8
o Cube.035
v -0.500000 -0.500000 -1.000000
v 0.500000 -0.500000 -1.000000
v -0.500000 0.500000 -1.000000
vn 0.0000 0.0000 -1.0000
s off
f 26//9 25//9 27//9
o Cube.034
v -1.000000 -0.500000 -0.500000
v -1.000000 -0.500000 0.500000
v -1.000000 0.500000 -0.500000
vn -1.0000 -0.0000 -0.0000
s off
f 29//10 30//10 28//10
o Cube.033
v -1.000000 -0.500000 -0.500000
v -0.500000 -0.500000 -1.000000
v -0.500000 -1.000000 -0.500000
vn -0.5774 -0.5774 -0.5774
s off
f 32//11 33//11 31//11
o Cube.032
v -1.000000 -0.500000 0.500000
v -0.500000 -1.000000 0.500000
v -1.000000 -0.500000 -0.500000
vn -0.7071 -0.7071 -0.0000
s off
f 36//12 35//12 34//12
o Cube.031
v -1.000000 -0.500000 0.500000
v -1.000000 0.500000 0.500000
v -1.000000 0.500000 -0.500000
vn -1.0000 0.0000 -0.0000
s off
f 37//13 38//13 39//13
o Cube.030
v -0.500000 -0.500000 1.000000
v 0.499999 0.500000 1.000000
v -0.500000 0.500000 1.000000
vn -0.0000 -0.0000 1.0000
s off
f 41//14 42//14 40//14
o Cube.029
v -0.500000 -1.000000 0.500000
v -0.500000 -0.500000 1.000000
v -1.000000 -0.500000 0.500000
vn -0.5774 -0.5774 0.5774
s off
f 44//15 45//15 43//15
o Cube.028
v 0.500000 -0.500000 1.000000
v -0.500000 -1.000000 0.500000
v -0.500000 -0.500000 1.000000
vn -0.0000 -0.7071 0.7071
s off
f 46//16 48//16 47//16
o Cube.027
v 0.500000 -0.500000 1.000000
v -0.500000 -0.500000 1.000000
v 0.499999 0.500000 1.000000
vn -0.0000 -0.0000 1.0000
s off
f 51//17 50//17 49//17
o Cube.026
v 1.000000 -0.500000 0.500000
v 1.000000 0.500000 0.500000
v 0.500000 -0.500000 1.000000
vn 0.7071 -0.0000 0.7071
s off
f 53//18 54//18 52//18
o Cube.025
v 0.500000 -1.000000 0.500000
v 1.000000 -0.500000 0.500000
v 1.000000 -0.500000 -0.500000
vn 0.7071 -0.7071 0.0000
s off
f 57//19 56//19 55//19
o Cube.024
v 0.500000 -1.000000 0.500000
v 0.500000 -1.000000 -0.500000
v -0.500000 -1.000000 0.500000
vn 0.0000 -1.0000 0.0000
s off
f 59//20 58//20 60//20
o Cube.023
v 0.500000 -1.000000 0.500000
v 1.000000 -0.500000 0.500000
v 0.500000 -0.500000 1.000000
vn 0.5774 -0.5774 0.5774
s off
f 62//21 63//21 61//21
o Cube.022
v 0.500000 -1.000000 -0.500000
v 0.500000 -0.500000 -1.000000
v -0.500000 -1.000000 -0.500000
vn 0.0000 -0.7071 -0.7071
s off
f 66//22 65//22 64//22
o Cube.021
v 0.500000 -1.000000 -0.500000
v -0.500000 -1.000000 0.500000
v -0.500000 -1.000000 -0.500000
vn 0.0000 -1.0000 0.0000
s off
f 67//23 68//23 69//23
o Cube.020
v 0.500000 -0.500000 -1.000000
v 1.000000 -0.500000 -0.500000
v 0.500000 0.500000 -1.000000
vn 0.7071 0.0000 -0.7071
s off
f 72//24 71//24 70//24
o Cube.019
v 0.500000 -0.500000 -1.000000
v 0.500000 0.500000 -1.000000
v -0.500000 0.500000 -1.000000
vn 0.0000 0.0000 -1.0000
s off
f 73//25 75//25 74//25
o Cube.018
v 0.500000 -0.500000 -1.000000
v 1.000000 -0.500000 -0.500000
v 0.500000 -1.000000 -0.500000
vn 0.5774 -0.5774 -0.5774
s off
f 77//26 78//26 76//26
o Cube.017
v -0.500000 1.000000 0.500000
v -1.000000 0.500000 0.500000
v -0.500000 1.000000 -0.500000
vn -0.7071 0.7071 -0.0000
s off
f 81//27 80//27 79//27
o Cube.016
v -1.000000 0.500000 0.500000
v -1.000000 0.500000 -0.500000
v -0.500000 1.000000 -0.500000
vn -0.7071 0.7071 -0.0000
s off
f 84//28 83//28 82//28
o Cube.015
v 0.500000 1.000000 0.500000
v -0.500000 0.500000 1.000000
v -0.500000 1.000000 0.500000
vn -0.0000 0.7071 0.7071
s off
f 85//29 87//29 86//29
o Cube.014
v 0.499999 0.500000 1.000000
v 0.500000 1.000000 0.500000
v -0.500000 0.500000 1.000000
vn -0.0000 0.7071 0.7071
s off
f 89//30 90//30 88//30
o Cube.013
v 0.500000 1.000000 -0.500000
v -0.500000 0.500000 -1.000000
v -0.500000 1.000000 -0.500000
vn 0.0000 0.7071 -0.7071
s off
f 92//31 93//31 91//31
o Cube.012
v 0.500000 0.500000 -1.000000
v 0.500000 1.000000 -0.500000
v -0.500000 0.500000 -1.000000
vn 0.0000 0.7071 -0.7071
s off
f 96//32 95//32 94//32
o Cube.011
v -1.000000 -0.500000 -0.500000
v -0.500000 0.500000 -1.000000
v -1.000000 0.500000 -0.500000
vn -0.7071 0.0000 -0.7071
s off
f 97//33 99//33 98//33
o Cube.010
v -0.500000 -0.500000 -1.000000
v -1.000000 -0.500000 -0.500000
v -0.500000 0.500000 -1.000000
vn -0.7071 -0.0000 -0.7071
s off
f 101//34 102//34 100//34
o Cube.009
v -0.500000 -1.000000 0.500000
v -0.500000 -1.000000 -0.500000
v -1.000000 -0.500000 -0.500000
vn -0.7071 -0.7071 -0.0000
s off
f 105//35 104//35 103//35
o Cube.008
v -1.000000 -0.500000 0.500000
v -1.000000 0.500000 0.500000
v -0.500000 0.500000 1.000000
vn -0.7071 0.0000 0.7071
s off
f 108//36 107//36 106//36
o Cube.007
v -0.500000 -0.500000 1.000000
v -1.000000 -0.500000 0.500000
v -0.500000 0.500000 1.000000
vn -0.7071 -0.0000 0.7071
s off
f 111//37 110//37 109//37
o Cube.006
v 0.500000 -1.000000 0.500000
v 0.500000 -0.500000 1.000000
v -0.500000 -1.000000 0.500000
vn 0.0000 -0.7071 0.7071
s off
f 113//38 114//38 112//38
o Cube.005
v 0.500000 -0.500000 1.000000
v 0.499999 0.500000 1.000000
v 1.000000 0.500000 0.500000
vn 0.7071 0.0000 0.7071
s off
f 117//39 116//39 115//39
o Cube.004
v 1.000000 -0.500000 0.500000
v 1.000000 0.500000 -0.500000
v 1.000000 0.500000 0.500000
vn 1.0000 -0.0000 0.0000
s off
f 119//40 120//40 118//40
o Cube.003
v 0.500000 -0.500000 -1.000000
v -0.500000 -0.500000 -1.000000
v -0.500000 -1.000000 -0.500000
vn 0.0000 -0.7071 -0.7071
s off
f 123//41 122//41 121//41
o Cube.002
v 0.500000 -1.000000 -0.500000
v 1.000000 -0.500000 -0.500000
v 0.500000 -1.000000 0.500000
vn 0.7071 -0.7071 0.0000
s off
f 125//42 126//42 124//42
o Cube.001
v 1.000000 -0.500000 -0.500000
v 1.000000 -0.500000 0.500000
v 1.000000 0.500000 -0.500000
vn 1.0000 0.0000 0.0000
s off
f 129//43 128//43 127//43
o Cube
v -0.500000 0.500000 -1.000000
v -1.000000 0.500000 -0.500000
v -0.500000 1.000000 -0.500000
vn -0.5774 0.5774 -0.5774
s off
f 131//44 132//44 130//44
